Coordinates
version=1
nRows=11
nColumns=40
inDegrees=yes

Units are S.I. units (second, meters, Newtons, ...)
If the header above contains a line with 'inDegrees', this indicates whether rotational values are in degrees (yes) or radians (no).

endheader
time	pelvis_tilt	pelvis_list	pelvis_rotation	pelvis_tx	pelvis_ty	pelvis_tz	hip_flexion_r	hip_adduction_r	hip_rotation_r	knee_angle_r	knee_angle_r_beta	ankle_angle_r	subtalar_angle_r	mtp_angle_r	hip_flexion_l	hip_adduction_l	hip_rotation_l	knee_angle_l	knee_angle_l_beta	ankle_angle_l	subtalar_angle_l	mtp_angle_l	lumbar_extension	lumbar_bending	lumbar_rotation	arm_flex_r	arm_add_r	arm_rot_r	elbow_flex_r	pro_sup_r	wrist_flex_r	wrist_dev_r	arm_flex_l	arm_add_l	arm_rot_l	elbow_flex_l	pro_sup_l	wrist_flex_l	wrist_dev_l
      0.00000000	     -5.07669726	      7.38113250	    -85.92436342	      0.22040346	      0.84578211	     -0.08355215	     -5.64990485	      8.54915845	    -15.47511679	      8.42781064	      0.14709304	      4.03710504	      0.00000000	      0.00000000	     35.71416964	     -5.10343777	     -5.30673851	      6.05766871	      0.10572626	     -3.73848934	      0.00000000	      0.00000000	     -1.30743576	      3.98217155	      6.74215984	     14.68509247	    -14.79470065	     -2.78596030	     59.39237466	     89.13160050	    -25.85686503	      4.00371083	    -14.41433111	    -10.69991606	      7.42512855	     22.33713465	     89.15561662	    -16.54743305	      7.29525732
      0.01000000	     -5.02690425	      7.40016108	    -86.06126534	      0.22093574	      0.84395105	     -0.07286216	     -6.26827438	      8.41160558	    -15.32262055	      8.75861407	      0.15286665	      4.09629635	      0.00000000	      0.00000000	     35.91208611	     -4.96664040	     -5.11469691	      6.59096733	      0.11503408	     -3.90308937	      0.00000000	      0.00000000	     -1.30278124	      3.74265958	      6.88314363	     14.51519166	    -14.74408993	     -2.72783485	     59.83057058	     89.13356200	    -25.85069275	      3.87374911	    -14.40239570	    -10.75420971	      7.31466228	     22.30838328	     89.13935271	    -16.57412891	      7.25986626
      0.02000000	     -4.89264488	      7.31880096	    -86.26065514	      0.22150330	      0.84234465	     -0.06187860	     -6.96044703	      8.15391571	    -15.22202012	      9.24777282	      0.16140408	      4.38056334	      0.00000000	      0.00000000	     36.01285776	     -4.83422163	     -5.34929498	      7.58108931	      0.13231497	     -3.97224080	      0.00000000	      0.00000000	     -1.42333673	      3.42012805	      7.11032652	     14.18250014	    -14.59090165	     -2.93842362	     60.36454171	     89.12635130	    -25.89536545	      3.59144156	    -14.33688434	    -10.80521823	      7.02061445	     22.35567164	     89.13623933	    -16.68965744	      7.12756423
      0.03000000	     -4.69464056	      7.31950887	    -86.46726775	      0.22217403	      0.84084563	     -0.05064823	     -7.62416205	      7.81119736	    -14.98873753	      9.61088042	      0.16774151	      4.26823277	      0.00000000	      0.00000000	     36.08833551	     -4.64948089	     -5.08554894	      8.63535870	      0.15071544	     -4.36360312	      0.00000000	      0.00000000	     -1.41040444	      3.01511438	      7.29893508	     13.82932890	    -14.47633500	     -2.82229928	     60.59269537	     89.13223023	    -25.88225476	      3.46820059	    -14.25183661	    -10.87857069	      6.89412054	     22.37225641	     89.12932481	    -16.75983930	      7.06094710
      0.04000000	     -4.29645317	      7.15001256	    -86.87703078	      0.22253654	      0.83978337	     -0.03909874	     -8.45184494	      7.23611744	    -14.72013811	     10.09486208	      0.17618858	      4.36366367	      0.00000000	      0.00000000	     35.98006806	     -4.47204652	     -5.65801344	     10.07406066	      0.17582553	     -4.73917155	      0.00000000	      0.00000000	     -1.62661514	      2.38980669	      7.58280078	     13.40221915	    -14.16355467	     -2.87409872	     60.84242629	     89.12768095	    -25.96287467	      2.74801075	    -14.19618136	    -10.91381710	      6.50752641	     22.47861011	     89.14205131	    -17.50347672	      6.56533362
      0.05000000	     -4.03786689	      7.13815807	    -87.02062844	      0.22362732	      0.83867614	     -0.02734053	     -9.12671400	      6.77934986	    -14.47563551	     10.48899309	      0.18306746	      3.97746817	      0.00000000	      0.00000000	     35.99656131	     -4.21921575	     -5.23006123	     11.45204067	      0.19987582	     -5.43210587	      0.00000000	      0.00000000	     -1.55164074	      1.95038633	      7.69888530	     12.84512356	    -14.02126667	     -2.66135636	     60.84680535	     89.13174205	    -25.95162144	      2.69927791	    -14.02830448	    -10.96843789	      6.48840567	     22.51450174	     89.14364282	    -17.58931494	      6.49996884
      0.06000000	     -3.72540685	      7.09695188	    -87.13113242	      0.22465601	      0.83779375	     -0.01548820	     -9.79317404	      6.26799129	    -14.37084934	     10.95253007	      0.19115771	      3.47256297	      0.00000000	      0.00000000	     36.07183221	     -3.95565928	     -5.19586323	     13.12836710	      0.22913323	     -6.32689554	      0.00000000	      0.00000000	     -1.54589451	      1.45411567	      7.65136013	     12.27962838	    -13.69947244	     -2.50020474	     60.91955586	     89.12574629	    -25.95929437	      2.57292735	    -13.85938456	    -11.02141393	      6.51110930	     22.53186100	     89.14569259	    -17.77217804	      6.38917166
      0.07000000	     -3.33103164	      7.08082119	    -87.28054664	      0.22583468	      0.83716740	     -0.00320287	    -10.42095876	      5.62144218	    -14.40831708	     11.46823727	      0.20015850	      2.81046109	      0.00000000	      0.00000000	     36.06653608	     -3.63570577	     -5.16941835	     14.72603428	      0.25701778	     -7.34488010	      0.00000000	      0.00000000	     -1.44265675	      0.88042301	      7.67320921	     11.57201901	    -13.37383744	     -2.32139517	     60.74693581	     89.12773210	    -25.99177010	      2.31933732	    -13.66813003	    -11.07376520	      6.66751460	     22.55082827	     89.14621512	    -18.24167643	      6.14233372
      0.08000000	     -2.88446178	      7.08901654	    -87.40568995	      0.22727919	      0.83682700	      0.00912613	    -10.95422530	      4.88309049	    -14.31648236	     12.08320212	      0.21089166	      1.90833522	      0.00000000	      0.00000000	     36.01156174	     -3.20826549	     -4.88836359	     16.18855332	      0.28254356	     -8.39665819	      0.00000000	      0.00000000	     -1.29770757	      0.26285288	      7.67292234	     10.82191987	    -13.05212938	     -1.92914416	     60.23853639	     89.11228245	    -26.64705357	      0.87812367	    -13.24099814	    -11.04451912	      8.05684351	     21.93547442	     89.10067028	    -22.07022413	      4.23965798
      0.09000000	     -2.48273837	      7.09692669	    -87.54108035	      0.22878376	      0.83667512	      0.02148887	    -11.42614728	      4.17290577	    -14.05453357	     12.75139474	      0.22255382	      0.86835073	      0.00000000	      0.00000000	     35.93981443	     -2.80386692	     -4.34313372	     17.63788750	      0.30783921	     -9.18774274	      0.00000000	      0.00000000	     -1.15451956	     -0.27752257	      7.66941580	     10.02910710	    -12.73729163	     -1.62407618	     59.89416888	     89.11835805	    -26.63101120	      0.97542968	    -12.94596975	    -11.03471569	      8.09384311	     22.02272152	     89.11172546	    -22.10821304	      4.17683201
      0.10000000	     -2.03317315	      7.16402523	    -87.52113126	      0.23055419	      0.83673028	      0.03406486	    -11.69765361	      3.36349665	    -14.34983493	     13.67689189	      0.23870679	     -0.66824552	      0.00000000	      0.00000000	     35.93572428	     -2.30746347	     -4.25940975	     19.07669919	      0.33295121	    -10.17434345	      0.00000000	      0.00000000	     -0.91622318	     -0.85742390	      7.40922444	      9.21916365	    -12.32351350	     -1.25584419	     59.36913214	     89.12224421	    -26.61329897	      1.02679529	    -12.66053293	    -11.03781451	      8.37263250	     22.03411905	     89.11515173	    -22.25893535	      4.07350707
